<svg xmlns="http://www.w3.org/2000/svg" version="1.1" id="MediaWiki-logo_sister" viewBox="-1 -1 42 42" y="47"><defs id="bdefs11"><linearGradient id="bgradient" gradientUnits="userSpaceOnUse" x1="0" x2="100" y1="100" y2="0"><stop offset="0%" stop-color="#0a00b2" id="bstop2"/><stop offset="50%" stop-color="red" id="bstop4"/><stop offset="100%" stop-color="#fffc00" id="bstop6"/></linearGradient><linearGradient xmlns:xlink="http://www.w3.org/1999/xlink" xlink:href="#bgradient" id="blinearGradient923" gradientUnits="userSpaceOnUse" x1="0" y1="100" x2="100" y2="0"/><linearGradient xmlns:xlink="http://www.w3.org/1999/xlink" xlink:href="#bgradient" id="blinearGradient925" gradientUnits="userSpaceOnUse" x1="0" y1="100" x2="100" y2="0"/><linearGradient xmlns:xlink="http://www.w3.org/1999/xlink" xlink:href="#bgradient" id="blinearGradient927" gradientUnits="userSpaceOnUse" x1="0" y1="100" x2="100" y2="0"/><linearGradient xmlns:xlink="http://www.w3.org/1999/xlink" xlink:href="#bgradient" id="blinearGradient929" gradientUnits="userSpaceOnUse" x1="0" y1="100" x2="100" y2="0"/><linearGradient xmlns:xlink="http://www.w3.org/1999/xlink" xlink:href="#bgradient" id="blinearGradient931" gradientUnits="userSpaceOnUse" x1="0" y1="100" x2="100" y2="0"/><linearGradient xmlns:xlink="http://www.w3.org/1999/xlink" xlink:href="#bgradient" id="blinearGradient933" gradientUnits="userSpaceOnUse" x1="0" y1="100" x2="100" y2="0"/><linearGradient xmlns:xlink="http://www.w3.org/1999/xlink" xlink:href="#bgradient" id="blinearGradient935" gradientUnits="userSpaceOnUse" x1="0" y1="100" x2="100" y2="0"/><linearGradient xmlns:xlink="http://www.w3.org/1999/xlink" xlink:href="#bgradient" id="blinearGradient937" gradientUnits="userSpaceOnUse" x1="0" y1="100" x2="100" y2="0"/><linearGradient xmlns:xlink="http://www.w3.org/1999/xlink" xlink:href="#bgradient" id="blinearGradient939" gradientUnits="userSpaceOnUse" x1="0" y1="100" x2="100" y2="0"/><linearGradient xmlns:xlink="http://www.w3.org/1999/xlink" xlink:href="#bgradient" id="blinearGradient941" gradientUnits="userSpaceOnUse" x1="0" y1="100" x2="100" y2="0"/><linearGradient xmlns:xlink="http://www.w3.org/1999/xlink" xlink:href="#bgradient" id="blinearGradient943" gradientUnits="userSpaceOnUse" x1="0" y1="100" x2="100" y2="0"/><linearGradient xmlns:xlink="http://www.w3.org/1999/xlink" xlink:href="#bgradient" id="blinearGradient945" gradientUnits="userSpaceOnUse" x1="0" y1="100" x2="100" y2="0"/><linearGradient xmlns:xlink="http://www.w3.org/1999/xlink" xlink:href="#bgradient" id="blinearGradient947" gradientUnits="userSpaceOnUse" x1="0" y1="100" x2="100" y2="0"/><linearGradient xmlns:xlink="http://www.w3.org/1999/xlink" xlink:href="#bgradient" id="blinearGradient949" gradientUnits="userSpaceOnUse" x1="0" y1="100" x2="100" y2="0"/><linearGradient xmlns:xlink="http://www.w3.org/1999/xlink" xlink:href="#bgradient" id="blinearGradient951" gradientUnits="userSpaceOnUse" x1="0" y1="100" x2="100" y2="0"/><linearGradient xmlns:xlink="http://www.w3.org/1999/xlink" xlink:href="#bgradient" id="blinearGradient953" gradientUnits="userSpaceOnUse" x1="0" y1="100" x2="100" y2="0"/><linearGradient xmlns:xlink="http://www.w3.org/1999/xlink" xlink:href="#bgradient" id="blinearGradient955" gradientUnits="userSpaceOnUse" x1="0" y1="100" x2="100" y2="0"/><linearGradient xmlns:xlink="http://www.w3.org/1999/xlink" xlink:href="#bgradient" id="blinearGradient957" gradientUnits="userSpaceOnUse" x1="0" y1="100" x2="100" y2="0"/><linearGradient xmlns:xlink="http://www.w3.org/1999/xlink" xlink:href="#bgradient" id="blinearGradient959" gradientUnits="userSpaceOnUse" x1="0" y1="100" x2="100" y2="0"/><linearGradient xmlns:xlink="http://www.w3.org/1999/xlink" xlink:href="#bgradient" id="blinearGradient961" gradientUnits="userSpaceOnUse" x1="0" y1="100" x2="100" y2="0"/><linearGradient xmlns:xlink="http://www.w3.org/1999/xlink" xlink:href="#bgradient" id="blinearGradient963" gradientUnits="userSpaceOnUse" x1="0" y1="100" x2="100" y2="0"/><linearGradient xmlns:xlink="http://www.w3.org/1999/xlink" xlink:href="#bgradient" id="blinearGradient965" gradientUnits="userSpaceOnUse" x1="0" y1="100" x2="100" y2="0"/><linearGradient xmlns:xlink="http://www.w3.org/1999/xlink" xlink:href="#bgradient" id="blinearGradient967" gradientUnits="userSpaceOnUse" x1="0" y1="100" x2="100" y2="0"/><linearGradient xmlns:xlink="http://www.w3.org/1999/xlink" xlink:href="#bgradient" id="blinearGradient969" gradientUnits="userSpaceOnUse" x1="0" y1="100" x2="100" y2="0"/><linearGradient xmlns:xlink="http://www.w3.org/1999/xlink" xlink:href="#bgradient" id="blinearGradient971" gradientUnits="userSpaceOnUse" x1="0" y1="100" x2="100" y2="0"/><style id="bstyle9">.bpetal{opacity:.65}</style></defs><g id="bpetals" transform="matrix(.4 0 0 .4 0 .106)" fill="url(#blinearGradient971)"><path class="bpetal" d="M33.6 14.8a16.938 16.938 0 003.116 11.142 11.457 11.457 0 006.858 4.3 3.033 3.033 0 002.385-.713 11.924 11.924 0 003.634-10.837c-1.257-7.54-6.19-12.43-12.4-17A32.468 32.468 0 0033.6 14.8z" id="bpath13" opacity=".65" fill="url(#blinearGradient923)"/><path class="bpetal" d="M25.117 20.232a16.938 16.938 0 005.893 9.956 11.457 11.457 0 007.738 2.381 3.033 3.033 0 002.119-1.306 11.924 11.924 0 00.705-11.409C38.406 12.9 32.376 9.449 25.2 6.642a32.468 32.468 0 00-.083 13.59z" id="bpath15" opacity=".65" fill="url(#blinearGradient925)"/><path class="bpetal" d="M18.329 27.677a16.937 16.937 0 008.271 8.092 11.457 11.457 0 008.09.3 3.033 3.033 0 001.709-1.81 11.924 11.924 0 00-2.271-11.2c-4.859-5.9-11.576-7.67-19.237-8.523a32.466 32.466 0 003.438 13.141z" id="bpath17" opacity=".65" fill="url(#blinearGradient927)"/><path class="bpetal" d="M13.7 36.626A16.938 16.938 0 0023.781 42.3a11.457 11.457 0 007.891-1.807 3.033 3.033 0 001.182-2.193 11.924 11.924 0 00-5.093-10.233c-6.221-4.443-13.167-4.412-20.787-3.254A32.468 32.468 0 0013.7 36.626z" id="bpath19" opacity=".65" fill="url(#blinearGradient929)"/><path class="bpetal" d="M11.543 46.468a16.938 16.938 0 0011.208 2.873 11.457 11.457 0 007.155-3.788 3.034 3.034 0 00.575-2.422 11.924 11.924 0 00-7.568-8.566c-7.16-2.681-13.861-.854-20.923 2.235a32.468 32.468 0 009.553 9.668z" id="bpath21" opacity=".65" fill="url(#blinearGradient931)"/><path class="bpetal" d="M12.008 56.532a16.938 16.938 0 0011.569-.126 11.457 11.457 0 005.931-5.51 3.033 3.033 0 00-.072-2.488 11.924 11.924 0 00-9.527-6.315C12.3 41.356 6.3 44.855.279 49.669a32.467 32.467 0 0011.729 6.863z" id="bpath23" opacity=".65" fill="url(#blinearGradient933)"/><path class="bpetal" d="M15.062 66.134A16.938 16.938 0 0026.2 63.018a11.457 11.457 0 004.3-6.858 3.033 3.033 0 00-.713-2.385 11.924 11.924 0 00-10.837-3.634c-7.54 1.257-12.43 6.19-17 12.4a32.468 32.468 0 0013.112 3.593z" id="bpath25" opacity=".65" fill="url(#blinearGradient935)"/><path class="bpetal" d="M20.5 74.618a16.938 16.938 0 009.956-5.893 11.457 11.457 0 002.381-7.738 3.033 3.033 0 00-1.306-2.119 11.925 11.925 0 00-11.409-.705c-6.958 3.166-10.4 9.2-13.212 16.376a32.466 32.466 0 0013.59.079z" id="bpath27" opacity=".65" fill="url(#blinearGradient937)"/><path class="bpetal" d="M27.943 81.406a16.938 16.938 0 008.092-8.269 11.457 11.457 0 00.3-8.09 3.033 3.033 0 00-1.81-1.709 11.924 11.924 0 00-11.2 2.271c-5.9 4.859-7.67 11.576-8.523 19.237a32.467 32.467 0 0013.141-3.44z" id="bpath29" opacity=".65" fill="url(#blinearGradient939)"/><path class="bpetal" d="M36.891 86.035a16.938 16.938 0 005.676-10.082 11.457 11.457 0 00-1.807-7.891 3.033 3.033 0 00-2.191-1.182 11.924 11.924 0 00-10.233 5.094c-4.443 6.221-4.412 13.167-3.254 20.787a32.467 32.467 0 0011.809-6.726z" id="bpath31" opacity=".65" fill="url(#blinearGradient941)"/><path class="bpetal" d="M46.733 88.191a16.937 16.937 0 002.873-11.207 11.457 11.457 0 00-3.788-7.155 3.033 3.033 0 00-2.422-.575 11.924 11.924 0 00-8.566 7.568c-2.681 7.159-.854 13.86 2.237 20.921a32.465 32.465 0 009.666-9.552z" id="bpath33" opacity=".65" fill="url(#blinearGradient943)"/><path class="bpetal" d="M56.8 87.726a16.937 16.937 0 00-.125-11.569 11.457 11.457 0 00-5.511-5.931 3.033 3.033 0 00-2.488.072 11.924 11.924 0 00-6.315 9.528c-.737 7.609 2.762 13.609 7.576 19.629A32.466 32.466 0 0056.8 87.726z" id="bpath35" opacity=".65" fill="url(#blinearGradient945)"/><path class="bpetal" d="M66.4 84.672a16.938 16.938 0 00-3.116-11.142 11.457 11.457 0 00-6.858-4.3 3.033 3.033 0 00-2.385.713 11.924 11.924 0 00-3.634 10.837c1.257 7.54 6.19 12.43 12.4 17A32.468 32.468 0 0066.4 84.672z" id="bpath37" opacity=".65" fill="url(#blinearGradient947)"/><path class="bpetal" d="M74.883 79.237a16.937 16.937 0 00-5.893-9.956 11.456 11.456 0 00-7.738-2.381 3.033 3.033 0 00-2.119 1.306 11.924 11.924 0 00-.705 11.409c3.166 6.958 9.2 10.4 16.375 13.212a32.468 32.468 0 00.08-13.59z" id="bpath39" opacity=".65" fill="url(#blinearGradient949)"/><path class="bpetal" d="M81.671 71.792A16.938 16.938 0 0073.4 63.7a11.457 11.457 0 00-8.09-.3 3.033 3.033 0 00-1.708 1.81 11.924 11.924 0 002.271 11.2c4.859 5.9 11.576 7.67 19.237 8.523a32.466 32.466 0 00-3.439-13.141z" id="bpath41" opacity=".65" fill="url(#blinearGradient951)"/><path class="bpetal" d="M86.3 62.843a16.938 16.938 0 00-10.082-5.676 11.457 11.457 0 00-7.891 1.807 3.033 3.033 0 00-1.182 2.191A11.924 11.924 0 0072.239 71.4c6.221 4.443 13.167 4.412 20.787 3.254A32.467 32.467 0 0086.3 62.843z" id="bpath43" opacity=".65" fill="url(#blinearGradient953)"/><path class="bpetal" d="M88.457 53a16.938 16.938 0 00-11.207-2.873 11.457 11.457 0 00-7.155 3.788 3.033 3.033 0 00-.574 2.422 11.925 11.925 0 007.567 8.563c7.158 2.681 13.86.854 20.921-2.237A32.467 32.467 0 0088.457 53z" id="bpath45" opacity=".65" fill="url(#blinearGradient955)"/><path class="bpetal" d="M87.992 42.936a16.938 16.938 0 00-11.569.126 11.457 11.457 0 00-5.931 5.511 3.033 3.033 0 00.072 2.488 11.924 11.924 0 009.527 6.315c7.609.737 13.609-2.762 19.63-7.576a32.468 32.468 0 00-11.729-6.864z" id="bpath47" opacity=".65" fill="url(#blinearGradient957)"/><path class="bpetal" d="M84.938 33.335A16.938 16.938 0 0073.8 36.451a11.457 11.457 0 00-4.3 6.858 3.033 3.033 0 00.714 2.385 11.924 11.924 0 0010.837 3.634c7.54-1.257 12.43-6.19 17-12.4a32.466 32.466 0 00-13.113-3.593z" id="bpath49" opacity=".65" fill="url(#blinearGradient959)"/><path class="bpetal" d="M79.5 24.851a16.938 16.938 0 00-9.956 5.893 11.457 11.457 0 00-2.381 7.738 3.033 3.033 0 001.309 2.118 11.924 11.924 0 0011.409.705c6.958-3.166 10.4-9.2 13.212-16.375a32.468 32.468 0 00-13.593-.079z" id="bpath51" opacity=".65" fill="url(#blinearGradient961)"/><path class="bpetal" d="M72.057 18.063a16.938 16.938 0 00-8.092 8.269 11.457 11.457 0 00-.3 8.09 3.033 3.033 0 001.81 1.709 11.924 11.924 0 0011.2-2.271c5.9-4.859 7.67-11.576 8.523-19.237a32.467 32.467 0 00-13.141 3.44z" id="bpath53" opacity=".65" fill="url(#blinearGradient963)"/><path class="bpetal" d="M63.109 13.434a16.937 16.937 0 00-5.676 10.082 11.457 11.457 0 001.807 7.891 3.033 3.033 0 002.191 1.182A11.924 11.924 0 0071.664 27.5c4.443-6.221 4.412-13.167 3.254-20.787a32.466 32.466 0 00-11.809 6.721z" id="bpath55" opacity=".65" fill="url(#blinearGradient965)"/><path class="bpetal" d="M53.267 11.278a16.937 16.937 0 00-2.873 11.207 11.456 11.456 0 003.788 7.155 3.033 3.033 0 002.422.575 11.924 11.924 0 008.566-7.568c2.681-7.159.854-13.86-2.237-20.921a32.466 32.466 0 00-9.666 9.552z" id="bpath57" opacity=".65" fill="url(#blinearGradient967)"/><path class="bpetal" d="M43.2 11.743a16.938 16.938 0 00.126 11.569 11.457 11.457 0 005.511 5.931 3.033 3.033 0 002.488-.072 11.924 11.924 0 006.315-9.528c.739-7.609-2.76-13.609-7.574-19.629A32.468 32.468 0 0043.2 11.743z" id="bpath59" opacity=".65" fill="url(#blinearGradient969)"/></g></svg>