<?xml version="1.0" standalone="no"?>
<!DOCTYPE svg PUBLIC "-//W3C//DTD SVG 20010904//EN"
 "http://www.w3.org/TR/2001/REC-SVG-20010904/DTD/svg10.dtd">
<svg version="1.0" xmlns="http://www.w3.org/2000/svg"
 width="675.000000pt" height="700.000000pt" viewBox="0 0 675.000000 700.000000"
 preserveAspectRatio="xMidYMid meet">

<g transform="translate(0.000000,700.000000) scale(0.100000,-0.100000)"
fill="#000000" stroke="none">
<path d="M3131 6895 c-35 -8 -100 -26 -145 -41 -381 -126 -667 -452 -750 -856
-21 -101 -21 -319 0 -428 63 -333 295 -643 594 -795 385 -195 854 -154 1198
105 353 266 520 720 423 1150 -99 434 -438 768 -876 861 -110 23 -346 25 -444
4z"/>
<path d="M984 5824 c-428 -435 -707 -914 -868 -1487 -94 -335 -120 -556 -113
-957 7 -374 39 -595 130 -895 398 -1308 1516 -2231 2877 -2376 149 -16 523
-16 670 0 766 83 1450 399 1995 923 545 523 895 1219 1001 1993 25 179 25 644
1 825 -107 779 -435 1447 -971 1980 l-106 105 -295 -295 -294 -294 112 -111
c125 -122 216 -232 311 -375 223 -334 352 -669 413 -1070 24 -160 24 -529 -1
-690 -60 -399 -182 -717 -402 -1050 -45 -69 -108 -156 -138 -195 -127 -158
-369 -380 -536 -492 -449 -299 -891 -435 -1420 -436 -429 0 -782 84 -1149 274
-271 140 -488 302 -684 511 -358 381 -568 808 -663 1348 -27 151 -27 616 -1
775 89 533 319 987 695 1376 l131 135 -294 294 -293 293 -108 -109z"/>
<path d="M4162 4497 l-522 -522 0 -1288 0 -1287 23 4 c12 3 69 15 127 27 266
55 560 189 790 360 106 79 282 248 367 354 253 311 406 684 454 1105 16 139 6
402 -20 545 -60 325 -182 611 -376 877 -63 86 -205 246 -268 300 l-54 46 -521
-521z"/>
<path d="M1879 4893 c-359 -371 -550 -795 -589 -1312 -19 -247 17 -535 96
-779 71 -218 223 -492 374 -677 32 -38 100 -110 151 -160 310 -297 671 -480
1107 -559 l32 -6 0 1288 0 1287 -518 518 c-284 284 -522 517 -528 517 -6 0
-63 -53 -125 -117z"/>
</g>
</svg>
